<svg xmlns="http://www.w3.org/2000/svg" version="1.1" xmlns:xlink="http://www.w3.org/1999/xlink" xmlns:svgjs="http://svgjs.dev/svgjs" width="1000" height="1000" viewBox="0 0 1000 1000"><rect width="1000" height="1000" fill="#ed1703"></rect><g transform="matrix(0.7,0,0,0.7,150.0000000000001,106.25)"><svg viewBox="0 0 320 360" data-background-color="#ed1703" preserveAspectRatio="xMidYMid meet" height="1125" width="1000" xmlns="http://www.w3.org/2000/svg" xmlns:xlink="http://www.w3.org/1999/xlink"><defs></defs><g id="tight-bounds" transform="matrix(1,0,0,1,0,0)"><svg viewBox="0 0 320 360" height="360" width="320"><g><svg></svg></g><g><svg viewBox="0 0 320 360" height="360" width="320"><g><path d="M20.961 227.22l3.726 4.658-1.863-6.056c-0.466-2.795-3.726 0.466-1.863 1.398M25.153 224.425c1.397 2.329 2.795 4.658 2.795 6.987 0 3.261 2.795 4.658 5.123 5.589-3.261-3.726-5.124-13.974-7.918-12.576M204.017 26.929c7.918 0 15.371-0.932 23.756 0.931 20.495 5.124 37.729 15.371 49.374 29.811l32.606 52.169c1.397 13.042 4.192 27.482 3.726 43.319 3.261 0 2.795-4.658 6.521-5.59-3.726 9.316-5.59 20.961-6.521 34.469-2.329-7.453 0-18.632 0.466-24.687-3.261 5.124-5.124 1.397-5.124-0.932 0.466-3.726-1.397-3.261-2.795-4.658-5.124-4.658-8.384-9.782-12.11-17.7 2.329-6.055 2.795-14.905-4.658-19.563-2.329-1.397-5.124-3.726-6.521-7.453-1.863-5.124-5.124-11.179-4.193-19.097 0.466-2.329-6.987 5.124-11.179 1.863-18.166-12.576-36.332-27.016-58.224-39.127-11.645 0-20.029-4.192-24.221-9.316-3.726-4.658-0.932-10.713 4.658-11.179 3.261 0 6.987-0.932 9.782 0.932 0.466-1.863 2.329-4.192 4.657-4.192M157.904 16.215l0.932 0.466c4.658 0.932 6.987 7.453 12.11 5.124 0 3.261 0.466 6.521-0.466 8.85-1.397 3.726-5.59 3.726-8.85 3.726-31.208-1.863-49.374 11.179-68.471 22.358-5.124 3.261-10.713 5.59-14.906 9.782-20.029 18.632-41.921 35.866-47.045 70.335l-4.192 38.195c-0.466 4.192-5.124 8.384-4.192 13.508l3.26 22.824c-3.261-3.261-5.124 0.932-4.192 2.795 0.466 1.397 2.329 6.055 5.124 1.863 3.726 6.987 7.453 20.495 12.576 26.55 15.837 18.632 36.332 35.4 53.101 52.169 4.192-0.932 7.453-0.932 8.384-3.727 1.397 2.795-1.397 5.59-3.726 6.056 7.453 4.658 15.837 8.85 27.016 9.781 14.44 0.932 27.948 3.261 40.524 6.522 6.521-1.863 13.042-2.795 20.029-3.261 2.329 0 3.726-3.726 6.521-4.658l0.466-4.658c2.795 4.192 2.329-1.397 0.466-4.192 3.261 2.795 4.192 5.124 5.589 6.987 0-1.397 3.726-6.521 3.727-0.466l0.931-6.055c1.397-0.932 1.863 5.124 3.261 0.931 1.397-4.192 4.192-0.932 6.987-2.329-0.932 1.863-0.466 5.59 2.794 3.261l3.727-3.261c2.329 5.59 6.055 3.261 7.918 2.329 20.495-13.042 40.99-28.413 60.553-43.784l-0.466 6.055 2.329-7.453c2.329 2.329 4.192 0.466 5.124-0.931 2.795-4.658 6.521-9.316 12.577-13.508-7.453 20.029-16.303 35.866-27.482 48.908l-4.658 5.59c0 3.261-0.932 7.453-4.658 7.918-1.863 0.466-5.59-0.932-8.384 1.863-1.397 1.863 3.261 5.59-0.466 2.795-3.261-2.329-6.521 0-10.248 0.932-2.795 0.932 1.863 3.726 2.795 5.589 0.932 1.863 1.863 3.726 1.398 6.056l-5.124-5.59c-6.055 3.261-9.782 9.316-14.906 13.974-2.329 1.863-1.397 5.124-1.397 7.918-3.261 0-6.987-0.932-8.85 0.932-1.397 1.863-0.932 4.658-0.932 7.453-4.658-0.466-5.124-7.453-9.315-6.056-4.192 0.932-8.85 1.397-12.577 3.727 2.795 5.59-4.658 2.329-3.726 3.26-6.987-4.192-13.042-7.453-20.495-4.658-15.837-5.124-35.4-2.795-49.84-0.931 0-2.329 0.466-4.658-0.466-5.124-0.932 2.329-3.726 1.397-3.26 1.397-8.85-6.055-17.7-9.782-27.016-14.905-8.384 0.932-16.303-3.261-18.632-5.59-6.521-6.055-13.974-2.795-20.029-4.192-13.042-3.261-17.7-16.769-19.098-26.084-0.932-4.658-4.658-6.521-6.055-6.056-6.055-19.563-15.371-37.263-22.824-55.429-1.863-4.658-1.397-9.316-1.397-14.44 2.329 0.932 4.658 0.466 4.192-2.794-2.329-15.371-7.918-27.016-13.974-38.195 3.261-15.837 3.726-34.469 11.179-48.443 6.521-12.576 18.632-19.098 27.016-29.811 2.795-3.726 2.795-8.85 5.59-12.11 9.316-9.316 18.632-19.098 28.879-27.482 4.658-3.726 10.247 0 17.234-1.397 2.329-8.384 11.645-15.837 20.495-13.508 3.726 0.932 11.179-8.85 13.508-9.782 3.726-1.397 1.863 3.726 1.863 6.987 8.85-6.987 20.961-10.713 32.14-14.906" fill="#ffffff" data-fill-palette-color="tertiary"></path></g><g transform="matrix(1,0,0,1,64,164.71725344412857)"><svg viewBox="0 0 192 30.56549311174284" height="30.56549311174284" width="192"><g><svg viewBox="0 0 192 30.56549311174284" height="30.56549311174284" width="192"><g><svg viewBox="0 0 192 30.56549311174284" height="30.56549311174284" width="192"><g><svg viewBox="0 0 192 30.56549311174284" height="30.56549311174284" width="192"><g><svg viewBox="0 0 192 30.56549311174284" height="30.56549311174284" width="192"><g><svg viewBox="0 0 192 30.56549311174284" height="30.56549311174284" width="192"><g transform="matrix(1,0,0,1,0,0)"><svg width="192" viewBox="4.349999904632568 -35.900001525878906 228.62998962402344 36.400001525878906" height="30.56549311174284" data-palette-color="#ffffff"><path d="M8 0L5.5 0Q4.95 0 4.65-0.33 4.35-0.65 4.35-1.15L4.35-1.15 4.35-33.8Q4.35-34.35 4.65-34.68 4.95-35 5.5-35L5.5-35 8-35Q8.55-35 8.88-34.68 9.2-34.35 9.2-33.8L9.2-33.8 9.2-21.4 22.55-34.2Q22.75-34.4 23.23-34.7 23.7-35 24.5-35L24.5-35 27.2-35Q27.6-35 27.9-34.7 28.2-34.4 28.2-34L28.2-34Q28.2-33.6 28-33.35L28-33.35 12.55-18.25 29-1.7Q29.25-1.4 29.25-1L29.25-1Q29.25-0.6 28.95-0.3 28.65 0 28.25 0L28.25 0 25.45 0Q24.6 0 24.15-0.33 23.7-0.65 23.5-0.85L23.5-0.85 9.2-14.9 9.2-1.15Q9.2-0.65 8.88-0.33 8.55 0 8 0L8 0ZM45.65 0.5L45.65 0.5Q41.3 0.5 38.35-0.85 35.4-2.2 33.82-4.33 32.25-6.45 32.15-8.8L32.15-8.8Q32.15-9.2 32.47-9.53 32.8-9.85 33.25-9.85L33.25-9.85 35.8-9.85Q36.4-9.85 36.7-9.55 37-9.25 37.1-8.85L37.1-8.85Q37.4-7.65 38.35-6.48 39.3-5.3 41.07-4.53 42.85-3.75 45.65-3.75L45.65-3.75Q49.95-3.75 51.97-5.28 54-6.8 54-9.35L54-9.35Q54-11.1 52.92-12.18 51.85-13.25 49.65-14.1 47.45-14.95 43.95-15.95L43.95-15.95Q40.3-17 37.9-18.25 35.5-19.5 34.32-21.35 33.15-23.2 33.15-26.05L33.15-26.05Q33.15-28.75 34.6-30.88 36.05-33 38.8-34.25 41.55-35.5 45.4-35.5L45.4-35.5Q48.5-35.5 50.82-34.68 53.15-33.85 54.7-32.48 56.25-31.1 57.05-29.53 57.85-27.95 57.9-26.45L57.9-26.45Q57.9-26.1 57.65-25.78 57.4-25.45 56.85-25.45L56.85-25.45 54.2-25.45Q53.85-25.45 53.47-25.65 53.1-25.85 52.9-26.4L52.9-26.4Q52.6-28.45 50.6-29.85 48.6-31.25 45.4-31.25L45.4-31.25Q42.15-31.25 40.12-30 38.1-28.75 38.1-26.1L38.1-26.1Q38.1-24.4 39.05-23.28 40-22.15 42.05-21.3 44.1-20.45 47.4-19.5L47.4-19.5Q51.4-18.4 53.95-17.18 56.5-15.95 57.72-14.13 58.95-12.3 58.95-9.45L58.95-9.45Q58.95-6.3 57.3-4.08 55.65-1.85 52.67-0.68 49.7 0.5 45.65 0.5ZM81.34 0L78.89 0Q78.39 0 78.07-0.33 77.74-0.65 77.74-1.15L77.74-1.15 77.74-33.8Q77.74-34.35 78.07-34.68 78.39-35 78.89-35L78.89-35 81.39-35Q81.99-35 82.29-34.7 82.59-34.4 82.69-34.2L82.69-34.2 93.24-14 103.89-34.2Q103.99-34.4 104.27-34.7 104.54-35 105.14-35L105.14-35 107.59-35Q108.14-35 108.47-34.68 108.79-34.35 108.79-33.8L108.79-33.8 108.79-1.15Q108.79-0.65 108.47-0.33 108.14 0 107.59 0L107.59 0 105.14 0Q104.64 0 104.32-0.33 103.99-0.65 103.99-1.15L103.99-1.15 103.99-25.75 95.64-9.45Q95.44-8.95 95.04-8.68 94.64-8.4 94.04-8.4L94.04-8.4 92.49-8.4Q91.84-8.4 91.49-8.68 91.14-8.95 90.89-9.45L90.89-9.45 82.49-25.75 82.49-1.15Q82.49-0.65 82.17-0.33 81.84 0 81.34 0L81.34 0ZM127.44 0.5L127.44 0.5Q123.64 0.5 121.09-0.95 118.54-2.4 117.19-4.98 115.84-7.55 115.69-10.85L115.69-10.85Q115.64-11.7 115.64-13.03 115.64-14.35 115.69-15.15L115.69-15.15Q115.84-18.5 117.22-21.05 118.59-23.6 121.14-25.05 123.69-26.5 127.44-26.5L127.44-26.5Q131.19-26.5 133.74-25.05 136.29-23.6 137.67-21.05 139.04-18.5 139.19-15.15L139.19-15.15Q139.24-14.35 139.24-13.03 139.24-11.7 139.19-10.85L139.19-10.85Q139.04-7.55 137.69-4.98 136.34-2.4 133.79-0.95 131.24 0.5 127.44 0.5ZM127.44-3.35L127.44-3.35Q130.54-3.35 132.39-5.33 134.24-7.3 134.39-11.1L134.39-11.1Q134.44-11.85 134.44-13 134.44-14.15 134.39-14.9L134.39-14.9Q134.24-18.7 132.39-20.68 130.54-22.65 127.44-22.65L127.44-22.65Q124.34-22.65 122.47-20.68 120.59-18.7 120.49-14.9L120.49-14.9Q120.44-14.15 120.44-13 120.44-11.85 120.49-11.1L120.49-11.1Q120.59-7.3 122.47-5.33 124.34-3.35 127.44-3.35ZM156.69 0L154.54 0Q153.79 0 153.36-0.35 152.94-0.7 152.69-1.25L152.69-1.25 143.44-24.45Q143.34-24.7 143.34-24.95L143.34-24.95Q143.34-25.4 143.64-25.7 143.94-26 144.39-26L144.39-26 146.79-26Q147.34-26 147.64-25.7 147.94-25.4 148.04-25.15L148.04-25.15 155.64-5.45 163.24-25.15Q163.34-25.4 163.61-25.7 163.89-26 164.44-26L164.44-26 166.89-26Q167.29-26 167.61-25.7 167.94-25.4 167.94-24.95L167.94-24.95Q167.94-24.7 167.84-24.45L167.84-24.45 158.54-1.25Q158.34-0.7 157.91-0.35 157.49 0 156.69 0L156.69 0ZM176.74 0L174.34 0Q173.84 0 173.51-0.33 173.19-0.65 173.19-1.15L173.19-1.15 173.19-24.85Q173.19-25.35 173.51-25.68 173.84-26 174.34-26L174.34-26 176.74-26Q177.24-26 177.56-25.68 177.89-25.35 177.89-24.85L177.89-24.85 177.89-1.15Q177.89-0.65 177.56-0.33 177.24 0 176.74 0L176.74 0ZM177.09-30.85L173.94-30.85Q173.44-30.85 173.11-31.18 172.79-31.5 172.79-32L172.79-32 172.79-34.7Q172.79-35.2 173.11-35.55 173.44-35.9 173.94-35.9L173.94-35.9 177.09-35.9Q177.59-35.9 177.94-35.55 178.29-35.2 178.29-34.7L178.29-34.7 178.29-32Q178.29-31.5 177.94-31.18 177.59-30.85 177.09-30.85L177.09-30.85ZM195.68 0.5L195.68 0.5Q190.48 0.5 187.43-2.68 184.38-5.85 184.08-11.35L184.08-11.35Q184.03-12 184.03-13.03 184.03-14.05 184.08-14.7L184.08-14.7Q184.28-18.25 185.73-20.93 187.18-23.6 189.71-25.05 192.23-26.5 195.63-26.5L195.63-26.5Q199.43-26.5 202.01-24.9 204.58-23.3 205.93-20.35 207.28-17.4 207.28-13.45L207.28-13.45 207.28-12.6Q207.28-12.05 206.96-11.75 206.63-11.45 206.13-11.45L206.13-11.45 188.83-11.45Q188.83-11.4 188.83-11.25 188.83-11.1 188.83-11L188.83-11Q188.93-8.95 189.73-7.18 190.53-5.4 192.06-4.3 193.58-3.2 195.63-3.2L195.63-3.2Q197.43-3.2 198.63-3.75 199.83-4.3 200.58-4.98 201.33-5.65 201.58-6.05L201.58-6.05Q202.03-6.65 202.28-6.78 202.53-6.9 203.08-6.9L203.08-6.9 205.53-6.9Q205.98-6.9 206.31-6.63 206.63-6.35 206.58-5.85L206.58-5.85Q206.53-5.1 205.78-4.03 205.03-2.95 203.66-1.9 202.28-0.85 200.26-0.18 198.23 0.5 195.68 0.5ZM188.83-15.05L188.83-14.9 202.53-14.9 202.53-15.05Q202.53-17.3 201.71-19.05 200.88-20.8 199.33-21.83 197.78-22.85 195.63-22.85L195.63-22.85Q193.48-22.85 191.96-21.83 190.43-20.8 189.63-19.05 188.83-17.3 188.83-15.05L188.83-15.05ZM222.28 0.5L222.28 0.5Q219.48 0.5 217.48-0.2 215.48-0.9 214.23-1.9 212.98-2.9 212.36-3.9 211.73-4.9 211.68-5.5L211.68-5.5Q211.63-6.05 212.03-6.35 212.43-6.65 212.83-6.65L212.83-6.65 215.08-6.65Q215.33-6.65 215.51-6.58 215.68-6.5 215.98-6.15L215.98-6.15Q216.63-5.45 217.43-4.75 218.23-4.05 219.41-3.6 220.58-3.15 222.33-3.15L222.33-3.15Q224.88-3.15 226.53-4.13 228.18-5.1 228.18-7L228.18-7Q228.18-8.25 227.51-9 226.83-9.75 225.11-10.35 223.38-10.95 220.38-11.6L220.38-11.6Q217.38-12.3 215.63-13.33 213.88-14.35 213.13-15.78 212.38-17.2 212.38-19L212.38-19Q212.38-20.85 213.48-22.58 214.58-24.3 216.71-25.4 218.83-26.5 222.03-26.5L222.03-26.5Q224.63-26.5 226.48-25.85 228.33-25.2 229.53-24.23 230.73-23.25 231.33-22.3 231.93-21.35 231.98-20.7L231.98-20.7Q232.03-20.2 231.68-19.88 231.33-19.55 230.88-19.55L230.88-19.55 228.78-19.55Q228.43-19.55 228.21-19.7 227.98-19.85 227.78-20.05L227.78-20.05Q227.28-20.7 226.61-21.35 225.93-22 224.86-22.43 223.78-22.85 222.03-22.85L222.03-22.85Q219.53-22.85 218.28-21.8 217.03-20.75 217.03-19.15L217.03-19.15Q217.03-18.2 217.58-17.45 218.13-16.7 219.68-16.1 221.23-15.5 224.28-14.8L224.28-14.8Q227.58-14.15 229.48-13.05 231.38-11.95 232.18-10.5 232.98-9.05 232.98-7.15L232.98-7.15Q232.98-5.05 231.78-3.3 230.58-1.55 228.18-0.53 225.78 0.5 222.28 0.5Z" opacity="1" transform="matrix(1,0,0,1,0,0)" fill="#ffffff" class="undefined-text-0" data-fill-palette-color="primary" id="text-0"></path></svg></g></svg></g></svg></g></svg></g><g></g></svg></g></svg></g></svg></g></svg></g></svg><rect width="320" height="360" fill="none" stroke="none" visibility="hidden"></rect></g></svg></g></svg>